<svg width="25" height="24" viewBox="0 0 25 24" fill="none" xmlns="http://www.w3.org/2000/svg">
<path d="M0 0V20.5205H8.02402V21.9877H6.55742V23.4526H18.4425V21.9877H16.9759V20.5205H25V0H0ZM15.511 21.9877H9.48897V20.5205H15.511V21.9877H15.511ZM23.5351 19.0556H1.46489V16.1222H23.5351V19.0556H23.5351ZM23.5351 14.6573H1.46489V1.46494H23.5351V14.6573H23.5351Z" fill="black"/>
<path d="M9.95767 5.41328L8.92183 4.37744L5.23828 8.06098L8.92183 11.7445L9.95767 10.7086L7.30996 8.06098L9.95767 5.41328Z" fill="black"/>
<path d="M16.0778 4.37744L15.042 5.41328L17.6897 8.06098L15.042 10.7086L16.0778 11.7445L19.7613 8.06098L16.0778 4.37744Z" fill="black"/>
<path d="M12.6322 3.64387L10.9316 12.1929L12.3685 12.4787L14.069 3.92968L12.6322 3.64387Z" fill="black"/>
</svg>
